<svg xmlns="http://www.w3.org/2000/svg" viewBox="0 0 24 24" fill="none" stroke="#C92C6D" stroke-width="1.5" stroke-linecap="round" stroke-linejoin="round">
  <!-- Основа вінка -->
  <path d="M12 2C9 2 6.5 3.5 5 6c-1.5 2.5-1.5 5.5 0 8 1.5 2.5 4 4 7 4s5.5-1.5 7-4c1.5-2.5 1.5-5.5 0-8C17.5 3.5 15 2 12 2z"/>
  <!-- Листки зліва -->
  <path d="M6 8c1-1 2.5-1.5 4-1 1.5 0.5 2.5 1.5 3 3"/>
  <path d="M7 12c0.5-0.5 1.5-0.5 2.5 0 1 0.5 1.5 1.5 2 2.5"/>
  <!-- Листки справа -->
  <path d="M18 8c-1-1-2.5-1.5-4-1-1.5 0.5-2.5 1.5-3 3"/>
  <path d="M17 12c-0.5-0.5-1.5-0.5-2.5 0-1 0.5-1.5 1.5-2 2.5"/>
  <!-- Центральний елемент -->
  <circle cx="12" cy="12" r="1.5" fill="#C92C6D"/>
</svg>
